<?xml version="1.0" encoding="UTF-8" standalone="no"?>
<!-- Created with Inkscape (http://www.inkscape.org/) -->

<svg
   width="71mm"
   height="71mm"
   viewBox="0 0 71 71"
   version="1.1"
   id="svg5"
   xmlns="http://www.w3.org/2000/svg"
   xmlns:svg="http://www.w3.org/2000/svg">
  <defs
     id="defs2" />
  <path
     id="path847"
     style="fill:#666666;stroke-width:0.219694"
     d="M 35.622412,7.4745636 A 28.185488,28.185488 0 0 0 7.4370498,35.660441 28.185488,28.185488 0 0 0 35.622412,63.845799 28.185488,28.185488 0 0 0 63.80777,35.660441 28.185488,28.185488 0 0 0 35.622412,7.4745636 Z m 0,6.3913414 A 21.794544,21.794544 0 0 1 57.416945,35.660441 21.794544,21.794544 0 0 1 35.622412,57.454975 21.794544,21.794544 0 0 1 13.827876,35.660441 21.794544,21.794544 0 0 1 35.622412,13.865905 Z" />
  <rect
     style="fill:#666666;stroke-width:0.278821"
     id="rect1022"
     width="7.0908303"
     height="23.623569"
     x="32.076992"
     y="19.392054"
     ry="3.9372621" />
  <rect
     style="fill:#666666;stroke-width:0.264583"
     id="rect1126"
     width="6.9067941"
     height="6.9067941"
     x="32.16901"
     y="45.661465"
     ry="3.453397" />
</svg>
