<?xml version="1.0" encoding="UTF-8" standalone="no"?>
<!-- Created with Inkscape (http://www.inkscape.org/) -->

<svg
   width="108.29943mm"
   height="108.29943mm"
   viewBox="0 0 108.29943 108.29943"
   version="1.1"
   id="svg5"
   xmlns="http://www.w3.org/2000/svg"
   xmlns:svg="http://www.w3.org/2000/svg">
  <defs
     id="defs2" />
  <g
     id="layer1"
     transform="translate(-16.31666,-11.984137)">
    <g
       id="g3589"
       transform="matrix(0.77916452,0,0,0.77916452,3.5303661,115.61119)">
      <path
         id="rect2000-2"
         style="fill:#000000;stroke:none;stroke-width:0.264583;stroke-opacity:1"
         d="m 54.276838,-86.224175 v 6.325712 h 2.306836 v -3.786849 h 4.400248 v -2.538863 z m 10.377662,0 v 2.538863 h 4.107243 v -2.538863 z m 7.777302,0 v 2.538863 h 4.107244 v -2.538863 z m 7.777819,0 v 2.538863 h 4.107243 v -2.538863 z m 7.777301,0 v 2.538863 h 4.10725 v -2.538863 z m 7.77782,0 v 2.538863 h 4.10725 v -2.538863 z m 7.777308,0 v 2.538863 h 4.10724 v -2.538863 z m 7.77782,0 v 2.538863 h 4.85861 v 3.786849 h 2.30684 v -6.325712 z m -57.043032,9.995773 v 4.063318 h 2.306836 v -4.063318 z m 61.901642,0 v 4.063318 h 2.30684 v -4.063318 z m -61.901642,7.733893 v 4.06332 h 2.306836 v -4.06332 z m 61.901642,0 v 4.06332 h 2.30684 v -4.06332 z m -61.901642,7.733895 v 4.06332 h 2.306836 v -4.06332 z m 61.901642,0 v 4.06332 h 2.30684 v -4.06332 z m -61.901642,7.733379 v 4.063317 h 2.306836 v -4.063317 z m 61.901642,0 v 4.063317 h 2.30684 v -4.063317 z m -61.901642,7.733895 v 4.063318 h 2.306836 v -4.063318 z m 61.901642,0 v 4.063318 h 2.30684 v -4.063318 z m -61.901642,7.733377 v 7.322034 h 6.707084 v -2.538862 h -4.400248 v -4.783172 z m 61.901642,0 v 4.783172 h -4.85861 v 2.538862 h 7.16545 v -7.322034 z m -51.52398,4.783172 v 2.538862 h 4.107243 v -2.538862 z m 7.777302,0 v 2.538862 h 4.107244 v -2.538862 z m 7.777819,0 v 2.538862 h 4.107243 v -2.538862 z m 7.777301,0 v 2.538862 h 4.10725 v -2.538862 z m 7.77782,0 v 2.538862 h 4.10725 v -2.538862 z m 7.777308,0 v 2.538862 h 4.10724 v -2.538862 z" />
      <path
         id="rect2000-2-7"
         style="fill:#000000;stroke:none;stroke-width:0.264583;stroke-opacity:1"
         d="m 40.048752,-103.45546 v 55.98625 h 64.208488 v -55.98625 z m 2.30684,2.53887 h 59.594818 v 50.908518 H 42.355592 Z" />
      <g
         id="g3502"
         transform="translate(199.61672,118.33884)">
        <path
           style="fill:#000000;stroke:none;stroke-opacity:1"
           id="path3394"
           transform="matrix(0.26458333,0,0,0.26458333,16.31666,11.984137)"
           d="m -317.04956,-578.4012 -25.93215,13.10373 -25.93215,13.10372 1.61791,-29.00976 1.61792,-29.00977 24.31424,15.90604 z" />
        <rect
           style="fill:#000000;stroke:none;stroke-width:0.264583;stroke-opacity:1"
           id="rect3418"
           width="5.7459216"
           height="11.90532"
           x="-2.9240942"
           y="-163.25372"
           transform="rotate(-28.457461)" />
      </g>
    </g>
  </g>
</svg>
