<?xml version="1.0" encoding="UTF-8" standalone="no"?>
<!-- Created with Inkscape (http://www.inkscape.org/) -->

<svg
   width="64mm"
   height="64mm"
   viewBox="0 0 64 63.999999"
   version="1.1"
   id="svg5"
   xmlns="http://www.w3.org/2000/svg"
   xmlns:svg="http://www.w3.org/2000/svg">
  <defs
     id="defs2" />
  <path
     id="rect2082"
     style="fill:#e87267;fill-opacity:1;stroke-width:0.298238"
     d="m 39.187503,12.969873 c -2.95679,-5.5e-4 -5.33738,2.271214 -5.33794,5.093941 -2.3e-4,0.01748 7e-4,0.03494 4.8e-4,0.05236 l -22.705135,-0.0042 c -3.0541403,-5.68e-4 -5.5132583,2.34671 -5.5138533,5.262374 l -0.0038,18.493609 c -5.94e-4,2.915664 2.457568,5.263284 5.5117063,5.263852 l 40.848952,0.0076 c 3.05415,5.69e-4 5.51327,-2.346137 5.51385,-5.261802 l 0.003,-18.493608 c 6e-4,-2.915664 -2.45755,-5.263855 -5.5117,-5.264422 l -2.16291,-4.03e-4 c 2.4e-4,-0.01745 4.5e-4,-0.03488 6.7e-4,-0.05236 5.8e-4,-2.822726 -2.37907,-5.095375 -5.33586,-5.095925 z m -7.61877,10.313662 a 10.06119,9.6050128 0 0 1 10.059,9.606662 10.06119,9.6050128 0 0 1 -10.06291,9.603491 10.06119,9.6050128 0 0 1 -10.059607,-9.607232 10.06119,9.6050128 0 0 1 10.063517,-9.602921 z" />
  <circle
     style="fill:#e87267;fill-opacity:1;fill-rule:evenodd;stroke-width:0.222961"
     id="path31"
     cx="31.56601"
     cy="32.81221"
     r="7.0589409" />
</svg>
