<?xml version="1.0" encoding="UTF-8" standalone="no"?>
<!-- Created with Inkscape (http://www.inkscape.org/) -->

<svg
   width="268.34647"
   height="268.34647"
   viewBox="0 0 70.999998 70.999998"
   version="1.1"
   id="svg5"
   xmlns="http://www.w3.org/2000/svg"
   xmlns:svg="http://www.w3.org/2000/svg">
  <defs
     id="defs2" />
  <g
     id="layer1"
     transform="matrix(1.2676406,0,0,1.2676406,-100.34522,-9.5725325)"
     style="fill:#666666">
    <path
       id="rect2082"
       style="fill:#666666;stroke-width:0.999999"
       d="m 24.101562,33.240234 c -10.005739,0 -18.0605464,8.056761 -18.0605464,18.0625 v 63.464846 c 0,10.00574 8.0548074,18.06054 18.0605464,18.06054 H 157.92773 c 10.00574,0 18.06055,-8.0548 18.06055,-18.06054 V 51.302734 c 0,-10.005739 -8.05481,-18.0625 -18.06055,-18.0625 z M 91.015625,50.974609 A 32.961695,32.961695 0 0 1 123.97656,83.935547 32.961695,32.961695 0 0 1 91.015625,116.89844 32.961695,32.961695 0 0 1 58.052734,83.935547 32.961695,32.961695 0 0 1 91.015625,50.974609 Z"
       transform="matrix(0.26458333,0,0,0.26458333,83.00964,14.824909)" />
    <rect
       style="fill:#666666;stroke-width:0.336181"
       id="rect2312"
       width="13.853873"
       height="9.2525873"
       x="109.06676"
       y="18.945965"
       ry="4.6262937" />
  </g>
</svg>
